<?xml version="1.0" encoding="UTF-8" standalone="no"?>
<!-- Created with Inkscape (http://www.inkscape.org/) -->

<svg
   width="39.832996mm"
   height="30.763332mm"
   viewBox="0 0 150.54991 116.27086"
   version="1.1"
   id="svg1"
   xmlns:inkscape="http://www.inkscape.org/namespaces/inkscape"
   xmlns:sodipodi="http://sodipodi.sourceforge.net/DTD/sodipodi-0.dtd"
   xmlns="http://www.w3.org/2000/svg"
   xmlns:svg="http://www.w3.org/2000/svg">
  <sodipodi:namedview
     id="namedview1"
     pagecolor="#ffffff"
     bordercolor="#666666"
     borderopacity="1.0"
     inkscape:showpageshadow="2"
     inkscape:pageopacity="0.0"
     inkscape:pagecheckerboard="0"
     inkscape:deskcolor="#d1d1d1"
     inkscape:document-units="mm" />
  <defs
     id="defs1" />
  <g
     inkscape:label="Capa 1"
     inkscape:groupmode="layer"
     id="layer1"
     transform="translate(-287.41095,-293.26396)">
    <path
       style="display:inline;fill:#000000"
       d="m 336.50635,408.06455 c -4.62932,-1.47034 -7.68151,-9.10663 -7.367,-15.2033 0.36354,-7.04715 0.50864,-7.78823 4.92943,-4.47764 0.97114,0.72725 10.08558,6.62175 22.76239,7.72997 5.17499,0.4524 5.1914,1.90214 3.33751,4.92396 -6.29087,10.25401 -16.58155,9.27596 -23.66233,7.02701 z m 46.43866,0.60379 c -4.58368,-1.03128 -10.66674,-10.92108 -7.26147,-11.67834 19.125,-4.253 26.04803,-9.9496 26.59353,-10.69596 0.80949,-1.10756 8.25071,13.65545 -5.49099,21.52376 -2.38862,1.3677 -9.63427,1.79702 -13.84107,0.85054 z m -31.97445,-18.56552 c -14.19545,-4.53516 -22.88946,-11.27103 -30.18782,-22.56301 -11.97378,-18.52577 -5.1752,-40.17571 10.17202,-51.61562 15.34722,-11.4399 35.54247,-15.37408 58.90189,-7.86217 10.96661,3.52663 21.56461,13.08728 25.27973,20.18872 1.66314,3.17909 5.24931,8.19218 5.80006,15.34 1.14958,14.9198 -6.64613,29.69849 -20.28161,38.92028 -13.63549,9.2218 -33.11076,12.8867 -49.68427,7.5918 z m 56.63216,-56.11848 c 1.75568,-1.33966 2.13425,-4.78577 0.83601,-6.57229 -1.23363,-1.69761 -4.56827,-2.13248 -6.23657,-0.85949 -1.59325,1.21571 -1.66827,4.37103 -0.49015,5.99227 1.18827,1.63519 4.28375,2.66569 5.89071,1.43951 z m -52.14241,-19.05999 c 5.42805,-2.63689 8.00143,-2.45947 14.41228,-2.57447 5.90786,-0.10597 15.33623,4.30744 17.15178,3.01479 5.17916,-3.68752 -14.66159,-7.61923 -18.40427,-7.58846 -13.03246,0.10714 -19.86364,5.82908 -20.28002,6.42711 -1.83447,2.63478 1.92903,3.24287 7.12023,0.72103 z m -64.17087,47.9702 c -1.63296,-0.54574 -3.0149,-1.96772 -3.53973,-3.69029 -0.52483,-1.72259 -0.33683,-3.74581 -0.12055,-5.26331 0.63317,-4.44264 6.88362,-7.74237 7.26372,-8.21898 0.7494,-0.9397 -0.68161,-2.02428 -3.32655,-4.54717 -2.96485,-2.82804 -4.73895,-4.28201 -1.85971,-3.77897 1.24704,0.21788 3.43988,2.01329 4.68066,3.24157 0.42586,0.42157 2.36548,3.49303 3.55361,3.6492 1.18812,0.15618 3.7078,-0.90035 7.25797,-1.54407 1.55441,-0.28185 3.72356,-0.30323 4.76366,0.12635 1.05455,0.43556 1.32955,1.59396 0.63504,2.19379 -0.52841,0.45638 -3.76708,0.14893 -5.06464,0.14893 -2.27243,0 -5.40236,0.89343 -6.12923,1.52735 -0.72687,0.63392 0.6163,1.23866 1.34474,2.93926 1.76674,4.12458 1.08916,8.2489 -0.7846,10.85972 -1.87376,2.61082 -5.14477,3.53626 -8.67439,2.35662 z m 6.87537,-5.43909 c 1.26233,-2.77052 0.58426,-8.47975 -1.45083,-8.87168 -2.26158,-0.43554 -5.19964,2.79344 -5.97677,6.3317 -1.23882,5.64033 5.03482,7.79155 7.4276,2.53998 z m 126.32377,1.03627 c 1.65694,-5.87563 -0.28977,-24.72606 -2.08987,-26.743 -2.41082,-2.70122 0.88415,-2.79557 5.49133,-2.53549 6.97776,0.3939 10.06979,5.99289 10.06979,16.02445 0.0498,5.18097 -1.68613,10.99823 -6.2971,13.0121 -1.79382,0.58324 -7.82254,2.54118 -7.17415,0.24194 z m -21.1227,-47.17569 c -6.40952,-4.52031 -16.67832,-7.29855 -16.31022,-9.159 0.73073,-3.69329 9.68558,-8.85259 10.62184,-8.88717 4.29741,-0.15872 14.57763,2.85934 12.23548,11.21794 -1.2708,4.53523 -4.82004,8.04624 -6.5471,6.82823 z"
       id="path1"
       sodipodi:nodetypes="sssssssssssssssssssssssssssssssssssssssssssssssssssssssssssss" />
  </g>
</svg>
