<?xml version="1.0" encoding="UTF-8" standalone="no"?>
<!-- Created with Inkscape (http://www.inkscape.org/) -->

<svg
   width="75.274963"
   height="58.135437"
   viewBox="0 0 75.274963 58.135444"
   version="1.1"
   id="svg1"
   sodipodi:docname="SpendSmart_sm.svg"
   inkscape:version="1.3.2 (091e20e, 2023-11-25, custom)"
   inkscape:export-filename="SpendSmart_sm.svg"
   inkscape:export-xdpi="60.09"
   inkscape:export-ydpi="60.09"
   xmlns:inkscape="http://www.inkscape.org/namespaces/inkscape"
   xmlns:sodipodi="http://sodipodi.sourceforge.net/DTD/sodipodi-0.dtd"
   xmlns="http://www.w3.org/2000/svg"
   xmlns:svg="http://www.w3.org/2000/svg">
  <sodipodi:namedview
     id="namedview1"
     pagecolor="#ffffff"
     bordercolor="#666666"
     borderopacity="1.0"
     inkscape:showpageshadow="2"
     inkscape:pageopacity="0.0"
     inkscape:pagecheckerboard="0"
     inkscape:deskcolor="#d1d1d1"
     inkscape:document-units="mm"
     inkscape:zoom="6.609104"
     inkscape:cx="37.675304"
     inkscape:cy="31.093473"
     inkscape:window-width="1920"
     inkscape:window-height="1020"
     inkscape:window-x="-9"
     inkscape:window-y="-9"
     inkscape:window-maximized="1"
     inkscape:current-layer="layer1" />
  <defs
     id="defs1" />
  <g
     inkscape:label="Capa 1"
     inkscape:groupmode="layer"
     id="layer1"
     transform="translate(-325.04842,-322.33167)">
    <path
       style="display:inline;fill:#000000;stroke-width:0.5"
       d="m 349.59613,379.73197 c -2.31466,-0.73517 -3.84076,-4.55331 -3.6835,-7.60165 0.18177,-3.52357 0.25432,-3.89411 2.46471,-2.23882 0.48557,0.36363 5.04279,3.31088 11.3812,3.86499 2.58749,0.2262 2.5957,0.95107 1.66875,2.46198 -3.14543,5.127 -8.29077,4.63798 -11.83116,3.5135 z m 23.21933,0.3019 c -2.29184,-0.51564 -5.33337,-5.46054 -3.63074,-5.83917 9.5625,-2.1265 13.02402,-4.9748 13.29677,-5.34798 0.40474,-0.55378 4.12535,6.82772 -2.7455,10.76188 -1.19431,0.68385 -4.81713,0.89851 -6.92053,0.42527 z m -15.98723,-9.28276 c -7.09772,-2.26758 -11.44473,-5.63552 -15.09391,-11.28151 -5.98689,-9.26288 -2.5876,-20.08785 5.08601,-25.80781 7.67361,-5.71995 17.77124,-7.68704 29.45095,-3.93108 5.4833,1.76331 10.7823,6.54364 12.63986,10.09436 0.83157,1.58954 2.62466,4.09609 2.90003,7.67 0.57479,7.4599 -3.32306,14.84924 -10.1408,19.46014 -6.81775,4.6109 -16.55538,6.44335 -24.84214,3.7959 z m 28.31608,-28.05924 c 0.87784,-0.66983 1.06713,-2.39289 0.41801,-3.28615 -0.61682,-0.8488 -2.28414,-1.06624 -3.11829,-0.42974 -0.79662,0.60785 -0.83413,2.18551 -0.24507,2.99613 0.59413,0.8176 2.14187,1.33285 2.94535,0.71976 z m -26.0712,-9.53 c 2.71402,-1.31844 4.00071,-1.22973 7.20614,-1.28723 2.95393,-0.053 7.66811,2.15372 8.57589,1.50739 2.58958,-1.84376 -7.3308,-3.80961 -9.20214,-3.79423 -6.51623,0.0536 -9.93182,2.91454 -10.14001,3.21356 -0.91723,1.31739 0.96452,1.62143 3.56012,0.36051 z m -32.08544,23.9851 c -0.81648,-0.27287 -1.50745,-0.98386 -1.76986,-1.84514 -0.26242,-0.8613 -0.16842,-1.87291 -0.0603,-2.63166 0.31659,-2.22132 3.44181,-3.87118 3.63186,-4.10949 0.3747,-0.46985 -0.3408,-1.01214 -1.66327,-2.27358 -1.48243,-1.41402 -2.36948,-2.14101 -0.92986,-1.88949 0.62352,0.10894 1.71994,1.00665 2.34033,1.62079 0.21293,0.21078 1.18274,1.74651 1.77681,1.8246 0.59406,0.0781 1.8539,-0.45018 3.62898,-0.77204 0.77721,-0.14092 1.86178,-0.15161 2.38183,0.0632 0.52728,0.21778 0.66478,0.79698 0.31752,1.09689 -0.2642,0.22819 -1.88354,0.0745 -2.53232,0.0745 -1.13621,0 -2.70118,0.44671 -3.06461,0.76367 -0.36344,0.31696 0.30815,0.61933 0.67237,1.46963 0.88337,2.06229 0.54458,4.12445 -0.3923,5.42986 -0.93688,1.30541 -2.57239,1.76813 -4.3372,1.17831 z m 3.43769,-2.71954 c 0.63116,-1.38526 0.29213,-4.23988 -0.72542,-4.43584 -1.13079,-0.21777 -2.59982,1.39672 -2.98838,3.16585 -0.61941,2.82016 2.51741,3.89577 3.7138,1.26999 z m 63.16188,0.51813 c 0.82847,-2.93781 -0.14488,-12.36303 -1.04493,-13.3715 -1.20541,-1.35061 0.44207,-1.39778 2.74566,-1.26774 3.48888,0.19695 5.0349,2.99644 5.0349,8.01222 0.0249,2.59049 -0.84307,5.49912 -3.14855,6.50605 -0.89691,0.29162 -3.91127,1.27059 -3.58708,0.12097 z m -10.56135,-23.58784 c -3.20476,-2.26016 -8.33916,-3.64928 -8.15511,-4.5795 0.36537,-1.84665 4.84279,-4.4263 5.31092,-4.44359 2.14871,-0.0794 7.28882,1.42967 6.11774,5.60897 -0.6354,2.26762 -2.41002,4.02312 -3.27355,3.41412 z"
       id="path1"
       sodipodi:nodetypes="sssssssssssssssssssssssssssssssssssssssssssssssssssssssssssss" />
  </g>
</svg>
